<mxfile host="Electron" agent="Mozilla/5.0 (Windows NT 10.0; Win64; x64) AppleWebKit/537.36 (KHTML, like Gecko) draw.io/26.0.9 Chrome/128.0.6613.186 Electron/32.2.5 Safari/537.36" version="26.0.9">
  <diagram id="R2lEEEUBdFMjLlhIrx00" name="Page-1">
    <mxGraphModel dx="1278" dy="625" grid="1" gridSize="10" guides="1" tooltips="1" connect="1" arrows="1" fold="1" page="1" pageScale="1" pageWidth="850" pageHeight="1100" math="0" shadow="0" extFonts="Permanent Marker^https://fonts.googleapis.com/css?family=Permanent+Marker">
      <root>
        <mxCell id="0" />
        <mxCell id="1" parent="0" />
        <mxCell id="oTwildlURfbksOZ-44mj-58" value="&lt;b&gt;N&lt;/b&gt;" style="text;html=1;align=center;verticalAlign=middle;whiteSpace=wrap;rounded=0;" parent="1" vertex="1">
          <mxGeometry x="258" y="142" width="60" height="30" as="geometry" />
        </mxCell>
        <mxCell id="oTwildlURfbksOZ-44mj-25" style="rounded=0;orthogonalLoop=1;jettySize=auto;html=1;entryX=0;entryY=0.5;entryDx=0;entryDy=0;endArrow=none;endFill=0;exitX=1;exitY=0.5;exitDx=0;exitDy=0;" parent="1" source="oTwildlURfbksOZ-44mj-20" target="PeCMR_nrHz4vX_4dIfeQ-2" edge="1">
          <mxGeometry relative="1" as="geometry" />
        </mxCell>
        <mxCell id="oTwildlURfbksOZ-44mj-20" value="Pray For" style="shape=rhombus;perimeter=rhombusPerimeter;whiteSpace=wrap;html=1;align=center;" parent="1" vertex="1">
          <mxGeometry x="300" y="119" width="120" height="60" as="geometry" />
        </mxCell>
        <mxCell id="oTwildlURfbksOZ-44mj-24" style="rounded=0;orthogonalLoop=1;jettySize=auto;html=1;entryX=0;entryY=0.5;entryDx=0;entryDy=0;endArrow=none;endFill=0;exitX=1;exitY=0.5;exitDx=0;exitDy=0;" parent="1" source="PeCMR_nrHz4vX_4dIfeQ-1" target="oTwildlURfbksOZ-44mj-20" edge="1">
          <mxGeometry relative="1" as="geometry" />
        </mxCell>
        <mxCell id="oTwildlURfbksOZ-44mj-28" style="rounded=0;orthogonalLoop=1;jettySize=auto;html=1;endArrow=none;endFill=0;exitX=1;exitY=0.5;exitDx=0;exitDy=0;entryX=0;entryY=0.5;entryDx=0;entryDy=0;" parent="1" source="oTwildlURfbksOZ-44mj-26" target="PeCMR_nrHz4vX_4dIfeQ-3" edge="1">
          <mxGeometry relative="1" as="geometry">
            <mxPoint x="660" y="150" as="sourcePoint" />
          </mxGeometry>
        </mxCell>
        <mxCell id="oTwildlURfbksOZ-44mj-26" value="Pray For" style="shape=rhombus;perimeter=rhombusPerimeter;whiteSpace=wrap;html=1;align=center;" parent="1" vertex="1">
          <mxGeometry x="300" y="292" width="120" height="60" as="geometry" />
        </mxCell>
        <mxCell id="oTwildlURfbksOZ-44mj-29" style="rounded=0;orthogonalLoop=1;jettySize=auto;html=1;entryX=0;entryY=0.5;entryDx=0;entryDy=0;endArrow=none;endFill=0;exitX=1;exitY=0.5;exitDx=0;exitDy=0;" parent="1" source="PeCMR_nrHz4vX_4dIfeQ-1" target="oTwildlURfbksOZ-44mj-26" edge="1">
          <mxGeometry relative="1" as="geometry" />
        </mxCell>
        <mxCell id="oTwildlURfbksOZ-44mj-31" style="rounded=0;orthogonalLoop=1;jettySize=auto;html=1;entryX=0;entryY=0.5;entryDx=0;entryDy=0;endArrow=none;endFill=0;exitX=0.94;exitY=0.495;exitDx=0;exitDy=0;shape=link;exitPerimeter=0;" parent="1" source="oTwildlURfbksOZ-44mj-30" target="PeCMR_nrHz4vX_4dIfeQ-4" edge="1">
          <mxGeometry relative="1" as="geometry" />
        </mxCell>
        <mxCell id="oTwildlURfbksOZ-44mj-32" style="rounded=0;orthogonalLoop=1;jettySize=auto;html=1;entryX=1;entryY=0.5;entryDx=0;entryDy=0;endArrow=none;endFill=0;exitX=0;exitY=0.5;exitDx=0;exitDy=0;" parent="1" source="oTwildlURfbksOZ-44mj-30" target="PeCMR_nrHz4vX_4dIfeQ-1" edge="1">
          <mxGeometry relative="1" as="geometry" />
        </mxCell>
        <mxCell id="oTwildlURfbksOZ-44mj-30" value="Answer To" style="shape=rhombus;perimeter=rhombusPerimeter;whiteSpace=wrap;html=1;align=center;" parent="1" vertex="1">
          <mxGeometry x="300" y="434" width="120" height="60" as="geometry" />
        </mxCell>
        <mxCell id="oTwildlURfbksOZ-44mj-35" style="rounded=0;orthogonalLoop=1;jettySize=auto;html=1;entryX=1;entryY=0.5;entryDx=0;entryDy=0;endArrow=none;endFill=0;exitX=0;exitY=0.5;exitDx=0;exitDy=0;" parent="1" source="PeCMR_nrHz4vX_4dIfeQ-5" edge="1">
          <mxGeometry relative="1" as="geometry">
            <mxPoint x="420" y="592" as="targetPoint" />
          </mxGeometry>
        </mxCell>
        <mxCell id="oTwildlURfbksOZ-44mj-45" style="rounded=0;orthogonalLoop=1;jettySize=auto;html=1;endArrow=none;endFill=0;exitX=1;exitY=0.5;exitDx=0;exitDy=0;shape=link;" parent="1" source="oTwildlURfbksOZ-44mj-44" target="oTwildlURfbksOZ-44mj-36" edge="1">
          <mxGeometry relative="1" as="geometry">
            <mxPoint x="700" y="320" as="sourcePoint" />
          </mxGeometry>
        </mxCell>
        <mxCell id="oTwildlURfbksOZ-44mj-56" value="&lt;b&gt;M&lt;/b&gt;" style="text;html=1;align=center;verticalAlign=middle;whiteSpace=wrap;rounded=0;" parent="1" vertex="1">
          <mxGeometry x="396" y="300" width="60" height="30" as="geometry" />
        </mxCell>
        <mxCell id="oTwildlURfbksOZ-44mj-65" value="&lt;b&gt;M&lt;/b&gt;" style="text;html=1;align=center;verticalAlign=middle;whiteSpace=wrap;rounded=0;" parent="1" vertex="1">
          <mxGeometry x="400" y="128" width="60" height="30" as="geometry" />
        </mxCell>
        <mxCell id="oTwildlURfbksOZ-44mj-69" value="&lt;b&gt;N&lt;/b&gt;" style="text;html=1;align=center;verticalAlign=middle;whiteSpace=wrap;rounded=0;" parent="1" vertex="1">
          <mxGeometry x="257" y="308" width="60" height="30" as="geometry" />
        </mxCell>
        <mxCell id="LJU5XoX6Y8T07WBKZ6yH-2" style="rounded=0;orthogonalLoop=1;jettySize=auto;html=1;entryX=1;entryY=0.5;entryDx=0;entryDy=0;endArrow=none;endFill=0;exitX=0;exitY=0.5;exitDx=0;exitDy=0;" parent="1" source="PeCMR_nrHz4vX_4dIfeQ-1" target="LJU5XoX6Y8T07WBKZ6yH-1" edge="1">
          <mxGeometry relative="1" as="geometry" />
        </mxCell>
        <mxCell id="PeCMR_nrHz4vX_4dIfeQ-1" value="Prayer" style="whiteSpace=wrap;html=1;align=center;" parent="1" vertex="1">
          <mxGeometry x="138" y="366" width="100" height="40" as="geometry" />
        </mxCell>
        <mxCell id="PeCMR_nrHz4vX_4dIfeQ-6" value="Request" style="ellipse;whiteSpace=wrap;html=1;align=center;" parent="1" vertex="1">
          <mxGeometry x="15" y="384" width="100" height="40" as="geometry" />
        </mxCell>
        <mxCell id="PeCMR_nrHz4vX_4dIfeQ-13" style="rounded=0;orthogonalLoop=1;jettySize=auto;html=1;entryX=0;entryY=0.5;entryDx=0;entryDy=0;endArrow=none;endFill=0;startArrow=none;startFill=0;exitX=1;exitY=0.5;exitDx=0;exitDy=0;" parent="1" source="PeCMR_nrHz4vX_4dIfeQ-8" target="PeCMR_nrHz4vX_4dIfeQ-1" edge="1">
          <mxGeometry relative="1" as="geometry" />
        </mxCell>
        <mxCell id="PeCMR_nrHz4vX_4dIfeQ-8" value="&lt;u&gt;PrayerId&lt;/u&gt;" style="ellipse;whiteSpace=wrap;html=1;align=center;" parent="1" vertex="1">
          <mxGeometry x="15" y="281" width="100" height="40" as="geometry" />
        </mxCell>
        <mxCell id="oTwildlURfbksOZ-44mj-46" style="rounded=0;orthogonalLoop=1;jettySize=auto;html=1;entryX=1;entryY=0.5;entryDx=0;entryDy=0;endArrow=none;endFill=0;exitX=0;exitY=0.5;exitDx=0;exitDy=0;" parent="1" source="oTwildlURfbksOZ-44mj-44" target="PeCMR_nrHz4vX_4dIfeQ-1" edge="1">
          <mxGeometry relative="1" as="geometry" />
        </mxCell>
        <mxCell id="oTwildlURfbksOZ-44mj-44" value="Prayed On" style="shape=rhombus;perimeter=rhombusPerimeter;whiteSpace=wrap;html=1;align=center;" parent="1" vertex="1">
          <mxGeometry x="300" y="546" width="120" height="60" as="geometry" />
        </mxCell>
        <mxCell id="oTwildlURfbksOZ-44mj-61" value="&lt;b&gt;1&lt;/b&gt;" style="text;html=1;align=center;verticalAlign=middle;whiteSpace=wrap;rounded=0;" parent="1" vertex="1">
          <mxGeometry x="260" y="554" width="60" height="30" as="geometry" />
        </mxCell>
        <mxCell id="oTwildlURfbksOZ-44mj-62" value="&lt;b&gt;N&lt;/b&gt;" style="text;html=1;align=center;verticalAlign=middle;whiteSpace=wrap;rounded=0;" parent="1" vertex="1">
          <mxGeometry x="270" y="435" width="60" height="30" as="geometry" />
        </mxCell>
        <mxCell id="oTwildlURfbksOZ-44mj-63" value="&lt;b&gt;1&lt;/b&gt;" style="text;html=1;align=center;verticalAlign=middle;whiteSpace=wrap;rounded=0;" parent="1" vertex="1">
          <mxGeometry x="395" y="439" width="60" height="30" as="geometry" />
        </mxCell>
        <mxCell id="PeCMR_nrHz4vX_4dIfeQ-7" value="Status" style="ellipse;whiteSpace=wrap;html=1;align=center;" parent="1" vertex="1">
          <mxGeometry x="15" y="434" width="100" height="40" as="geometry" />
        </mxCell>
        <mxCell id="-hsbIFczYBm3XeNLxdqo-4" style="rounded=0;orthogonalLoop=1;jettySize=auto;html=1;entryX=0;entryY=0.5;entryDx=0;entryDy=0;endArrow=none;endFill=0;startArrow=none;startFill=0;exitX=1;exitY=0.5;exitDx=0;exitDy=0;" parent="1" source="PeCMR_nrHz4vX_4dIfeQ-6" target="PeCMR_nrHz4vX_4dIfeQ-1" edge="1">
          <mxGeometry relative="1" as="geometry">
            <mxPoint x="125" y="320" as="sourcePoint" />
            <mxPoint x="148" y="396" as="targetPoint" />
          </mxGeometry>
        </mxCell>
        <mxCell id="-hsbIFczYBm3XeNLxdqo-5" style="rounded=0;orthogonalLoop=1;jettySize=auto;html=1;endArrow=none;endFill=0;startArrow=none;startFill=0;exitX=1;exitY=0.5;exitDx=0;exitDy=0;entryX=0;entryY=0.5;entryDx=0;entryDy=0;" parent="1" source="PeCMR_nrHz4vX_4dIfeQ-7" target="PeCMR_nrHz4vX_4dIfeQ-1" edge="1">
          <mxGeometry relative="1" as="geometry">
            <mxPoint x="125" y="320" as="sourcePoint" />
            <mxPoint x="140" y="380" as="targetPoint" />
          </mxGeometry>
        </mxCell>
        <mxCell id="PeCMR_nrHz4vX_4dIfeQ-19" value="&lt;u&gt;PresonId&lt;/u&gt;" style="ellipse;whiteSpace=wrap;html=1;align=center;" parent="1" vertex="1">
          <mxGeometry x="590" y="74" width="100" height="40" as="geometry" />
        </mxCell>
        <mxCell id="PeCMR_nrHz4vX_4dIfeQ-24" value="" style="rounded=0;orthogonalLoop=1;jettySize=auto;html=1;startArrow=none;startFill=0;endArrow=none;endFill=0;exitX=1;exitY=0.5;exitDx=0;exitDy=0;entryX=0;entryY=0.5;entryDx=0;entryDy=0;" parent="1" source="PeCMR_nrHz4vX_4dIfeQ-2" target="PeCMR_nrHz4vX_4dIfeQ-19" edge="1">
          <mxGeometry relative="1" as="geometry" />
        </mxCell>
        <mxCell id="PeCMR_nrHz4vX_4dIfeQ-20" value="Name" style="ellipse;whiteSpace=wrap;html=1;align=center;" parent="1" vertex="1">
          <mxGeometry x="607.5" y="129" width="100" height="40" as="geometry" />
        </mxCell>
        <mxCell id="PeCMR_nrHz4vX_4dIfeQ-29" style="rounded=0;orthogonalLoop=1;jettySize=auto;html=1;startArrow=none;startFill=0;endArrow=none;endFill=0;entryX=0.5;entryY=1;entryDx=0;entryDy=0;exitX=0.5;exitY=0;exitDx=0;exitDy=0;" parent="1" source="PeCMR_nrHz4vX_4dIfeQ-21" target="PeCMR_nrHz4vX_4dIfeQ-20" edge="1">
          <mxGeometry relative="1" as="geometry" />
        </mxCell>
        <mxCell id="PeCMR_nrHz4vX_4dIfeQ-30" style="rounded=0;orthogonalLoop=1;jettySize=auto;html=1;entryX=0.5;entryY=1;entryDx=0;entryDy=0;startArrow=none;startFill=0;endArrow=none;endFill=0;exitX=0.5;exitY=0;exitDx=0;exitDy=0;" parent="1" source="PeCMR_nrHz4vX_4dIfeQ-22" target="PeCMR_nrHz4vX_4dIfeQ-20" edge="1">
          <mxGeometry relative="1" as="geometry" />
        </mxCell>
        <mxCell id="PeCMR_nrHz4vX_4dIfeQ-2" value="Person" style="whiteSpace=wrap;html=1;align=center;" parent="1" vertex="1">
          <mxGeometry x="462" y="129" width="100" height="40" as="geometry" />
        </mxCell>
        <mxCell id="PeCMR_nrHz4vX_4dIfeQ-21" value="First" style="ellipse;whiteSpace=wrap;html=1;align=center;" parent="1" vertex="1">
          <mxGeometry x="659.5" y="176" width="100" height="40" as="geometry" />
        </mxCell>
        <mxCell id="PeCMR_nrHz4vX_4dIfeQ-22" value="Last" style="ellipse;whiteSpace=wrap;html=1;align=center;" parent="1" vertex="1">
          <mxGeometry x="554.5" y="176" width="100" height="40" as="geometry" />
        </mxCell>
        <mxCell id="PeCMR_nrHz4vX_4dIfeQ-45" style="rounded=0;orthogonalLoop=1;jettySize=auto;html=1;endArrow=none;endFill=0;entryX=0;entryY=0.5;entryDx=0;entryDy=0;exitX=1;exitY=0.5;exitDx=0;exitDy=0;" parent="1" source="PeCMR_nrHz4vX_4dIfeQ-3" target="PeCMR_nrHz4vX_4dIfeQ-42" edge="1">
          <mxGeometry relative="1" as="geometry" />
        </mxCell>
        <mxCell id="PeCMR_nrHz4vX_4dIfeQ-46" style="rounded=0;orthogonalLoop=1;jettySize=auto;html=1;endArrow=none;endFill=0;exitX=1;exitY=0.5;exitDx=0;exitDy=0;entryX=0;entryY=0.5;entryDx=0;entryDy=0;" parent="1" source="PeCMR_nrHz4vX_4dIfeQ-3" target="PeCMR_nrHz4vX_4dIfeQ-43" edge="1">
          <mxGeometry relative="1" as="geometry" />
        </mxCell>
        <mxCell id="PeCMR_nrHz4vX_4dIfeQ-47" style="rounded=0;orthogonalLoop=1;jettySize=auto;html=1;entryX=0;entryY=0.5;entryDx=0;entryDy=0;endArrow=none;endFill=0;exitX=1;exitY=0.5;exitDx=0;exitDy=0;" parent="1" source="PeCMR_nrHz4vX_4dIfeQ-3" target="PeCMR_nrHz4vX_4dIfeQ-44" edge="1">
          <mxGeometry relative="1" as="geometry" />
        </mxCell>
        <mxCell id="PeCMR_nrHz4vX_4dIfeQ-3" value="Thing" style="whiteSpace=wrap;html=1;align=center;" parent="1" vertex="1">
          <mxGeometry x="462" y="302" width="100" height="40" as="geometry" />
        </mxCell>
        <mxCell id="PeCMR_nrHz4vX_4dIfeQ-42" value="&lt;u&gt;ThingId&lt;/u&gt;" style="ellipse;whiteSpace=wrap;html=1;align=center;" parent="1" vertex="1">
          <mxGeometry x="600" y="266" width="100" height="40" as="geometry" />
        </mxCell>
        <mxCell id="PeCMR_nrHz4vX_4dIfeQ-43" value="Description" style="ellipse;whiteSpace=wrap;html=1;align=center;" parent="1" vertex="1">
          <mxGeometry x="600" y="335" width="100" height="40" as="geometry" />
        </mxCell>
        <mxCell id="PeCMR_nrHz4vX_4dIfeQ-44" value="Type" style="ellipse;whiteSpace=wrap;html=1;align=center;" parent="1" vertex="1">
          <mxGeometry x="680" y="300" width="100" height="40" as="geometry" />
        </mxCell>
        <mxCell id="PeCMR_nrHz4vX_4dIfeQ-48" value="AnswerId" style="ellipse;whiteSpace=wrap;html=1;align=center;fontStyle=4;" parent="1" vertex="1">
          <mxGeometry x="600" y="419" width="100" height="40" as="geometry" />
        </mxCell>
        <mxCell id="PeCMR_nrHz4vX_4dIfeQ-50" style="rounded=0;orthogonalLoop=1;jettySize=auto;html=1;entryX=0;entryY=0.5;entryDx=0;entryDy=0;endArrow=none;endFill=0;exitX=1;exitY=0.5;exitDx=0;exitDy=0;" parent="1" source="PeCMR_nrHz4vX_4dIfeQ-4" target="PeCMR_nrHz4vX_4dIfeQ-48" edge="1">
          <mxGeometry relative="1" as="geometry" />
        </mxCell>
        <mxCell id="PeCMR_nrHz4vX_4dIfeQ-51" style="rounded=0;orthogonalLoop=1;jettySize=auto;html=1;endArrow=none;endFill=0;entryX=0;entryY=0.5;entryDx=0;entryDy=0;exitX=1;exitY=0.5;exitDx=0;exitDy=0;" parent="1" source="PeCMR_nrHz4vX_4dIfeQ-4" target="PeCMR_nrHz4vX_4dIfeQ-49" edge="1">
          <mxGeometry relative="1" as="geometry" />
        </mxCell>
        <mxCell id="PeCMR_nrHz4vX_4dIfeQ-4" value="Answer" style="whiteSpace=wrap;html=1;align=center;" parent="1" vertex="1">
          <mxGeometry x="462" y="444" width="100" height="40" as="geometry" />
        </mxCell>
        <mxCell id="PeCMR_nrHz4vX_4dIfeQ-49" value="Description" style="ellipse;whiteSpace=wrap;html=1;align=center;" parent="1" vertex="1">
          <mxGeometry x="600" y="469" width="100" height="40" as="geometry" />
        </mxCell>
        <mxCell id="-hsbIFczYBm3XeNLxdqo-11" style="rounded=0;orthogonalLoop=1;jettySize=auto;html=1;endArrow=none;endFill=0;entryX=1;entryY=0.5;entryDx=0;entryDy=0;exitX=0;exitY=0.5;exitDx=0;exitDy=0;" parent="1" source="PeCMR_nrHz4vX_4dIfeQ-20" target="PeCMR_nrHz4vX_4dIfeQ-2" edge="1">
          <mxGeometry relative="1" as="geometry">
            <mxPoint x="680" y="124" as="sourcePoint" />
            <mxPoint x="572" y="159" as="targetPoint" />
          </mxGeometry>
        </mxCell>
        <mxCell id="oTwildlURfbksOZ-44mj-5" style="rounded=0;orthogonalLoop=1;jettySize=auto;html=1;endArrow=none;endFill=0;exitX=1;exitY=0.5;exitDx=0;exitDy=0;entryX=0;entryY=0.5;entryDx=0;entryDy=0;" parent="1" target="oTwildlURfbksOZ-44mj-1" edge="1">
          <mxGeometry relative="1" as="geometry">
            <mxPoint x="562" y="592" as="sourcePoint" />
          </mxGeometry>
        </mxCell>
        <mxCell id="oTwildlURfbksOZ-44mj-10" style="rounded=0;orthogonalLoop=1;jettySize=auto;html=1;endArrow=none;endFill=0;entryX=0;entryY=0.5;entryDx=0;entryDy=0;entryPerimeter=0;exitX=1;exitY=0.5;exitDx=0;exitDy=0;" parent="1" target="oTwildlURfbksOZ-44mj-2" edge="1">
          <mxGeometry relative="1" as="geometry">
            <mxPoint x="562" y="592" as="sourcePoint" />
          </mxGeometry>
        </mxCell>
        <mxCell id="oTwildlURfbksOZ-44mj-11" style="rounded=0;orthogonalLoop=1;jettySize=auto;html=1;endArrow=none;endFill=0;exitX=1;exitY=0.5;exitDx=0;exitDy=0;entryX=0;entryY=0.5;entryDx=0;entryDy=0;" parent="1" target="oTwildlURfbksOZ-44mj-3" edge="1">
          <mxGeometry relative="1" as="geometry">
            <mxPoint x="562" y="592" as="sourcePoint" />
          </mxGeometry>
        </mxCell>
        <mxCell id="oTwildlURfbksOZ-44mj-13" style="rounded=0;orthogonalLoop=1;jettySize=auto;html=1;endArrow=none;endFill=0;exitX=0;exitY=0.5;exitDx=0;exitDy=0;entryX=1;entryY=0.5;entryDx=0;entryDy=0;" parent="1" source="oTwildlURfbksOZ-44mj-4" edge="1">
          <mxGeometry relative="1" as="geometry">
            <mxPoint x="562" y="592" as="targetPoint" />
          </mxGeometry>
        </mxCell>
        <mxCell id="oTwildlURfbksOZ-44mj-36" value="Log" style="whiteSpace=wrap;html=1;align=center;" parent="1" vertex="1">
          <mxGeometry x="462" y="556" width="100" height="40" as="geometry" />
        </mxCell>
        <mxCell id="oTwildlURfbksOZ-44mj-40" style="rounded=0;orthogonalLoop=1;jettySize=auto;html=1;endArrow=none;endFill=0;exitX=0;exitY=0.5;exitDx=0;exitDy=0;entryX=1;entryY=0.5;entryDx=0;entryDy=0;" parent="1" source="oTwildlURfbksOZ-44mj-37" target="oTwildlURfbksOZ-44mj-36" edge="1">
          <mxGeometry relative="1" as="geometry">
            <mxPoint x="570" y="576" as="targetPoint" />
          </mxGeometry>
        </mxCell>
        <mxCell id="oTwildlURfbksOZ-44mj-37" value="LogId" style="ellipse;whiteSpace=wrap;html=1;align=center;fontStyle=4;" parent="1" vertex="1">
          <mxGeometry x="600" y="540" width="100" height="40" as="geometry" />
        </mxCell>
        <mxCell id="oTwildlURfbksOZ-44mj-41" style="rounded=0;orthogonalLoop=1;jettySize=auto;html=1;endArrow=none;endFill=0;exitX=0;exitY=0.5;exitDx=0;exitDy=0;entryX=1;entryY=0.5;entryDx=0;entryDy=0;" parent="1" source="oTwildlURfbksOZ-44mj-39" target="oTwildlURfbksOZ-44mj-36" edge="1">
          <mxGeometry relative="1" as="geometry">
            <mxPoint x="570" y="570" as="targetPoint" />
          </mxGeometry>
        </mxCell>
        <mxCell id="oTwildlURfbksOZ-44mj-39" value="Date/Time" style="ellipse;whiteSpace=wrap;html=1;align=center;" parent="1" vertex="1">
          <mxGeometry x="600" y="585" width="100" height="40" as="geometry" />
        </mxCell>
        <mxCell id="LJU5XoX6Y8T07WBKZ6yH-1" value="Subject" style="ellipse;whiteSpace=wrap;html=1;align=center;" parent="1" vertex="1">
          <mxGeometry x="15" y="332" width="100" height="40" as="geometry" />
        </mxCell>
        <mxCell id="LJU5XoX6Y8T07WBKZ6yH-3" value="&lt;b&gt;N&lt;/b&gt;" style="text;html=1;align=center;verticalAlign=middle;whiteSpace=wrap;rounded=0;" parent="1" vertex="1">
          <mxGeometry x="397" y="551" width="60" height="30" as="geometry" />
        </mxCell>
      </root>
    </mxGraphModel>
  </diagram>
</mxfile>
